<?xml version="1.0" encoding="UTF-8" standalone="no"?>
<svg xmlns="http://www.w3.org/2000/svg"
     xmlns:svg="http://www.w3.org/2000/svg"
     version="1.1"
     width="10.37in" height="10in"
     viewBox="0 0 3111 3000">
  <path id="ex-rays"
        fill="none" stroke="black" stroke-width="1"
        d="M 3098.82,724.06
           C 3098.82,724.20 2327.24,1237.05 2326.62,1237.05M 2993.72,795.73
           C 2993.72,795.73 2535.77,1357.07 2535.77,1357.07M 2091.61,1100.00
           C 2091.61,1100.00 3101.51,722.73 3101.51,722.73M 1898.06,195.35
           C 1898.06,195.35 1437.65,798.54 1437.65,798.41M 1672.68,860.31
           C 1672.68,860.31 2017.29,227.03 2017.29,227.03M 1091.53,1072.24
           C 1091.53,1072.24 864.53,995.97 864.53,995.97
             864.53,995.97 678.46,728.41 678.46,728.41M 1090.27,960.45
           C 1090.27,960.45 840.01,960.45 840.01,960.45M 1738.81,734.64
           C 1738.81,734.64 1811.46,984.81 1811.46,984.81
             1811.46,984.81 2895.17,536.73 2895.17,536.73M 2568.13,1534.61
           C 2568.13,1534.61 2788.85,1382.86 2788.85,1382.86M 2735.60,1533.81
           C 2735.60,1533.81 2735.30,1419.40 2735.20,1419.40M 2189.42,829.44
           C 2189.42,829.44 2132.22,1084.70 2132.22,1084.70M 246.46,1211.09
           C 246.46,1211.09 250.53,1281.71 250.53,1281.71M 2656.13,1997.55
           C 2656.13,1997.55 2736.06,2113.51 2736.06,2113.51M 137.89,1166.80
           C 137.89,1166.80 203.96,1213.72 203.96,1213.24
             203.96,1212.76 441.44,1200.00 441.44,1200.00
             441.44,1200.00 560.18,1218.51 560.18,1218.51
             560.18,1218.51 717.70,1276.44 717.70,1276.44
             717.70,1276.44 889.40,1275.70 889.40,1275.70
             889.40,1275.70 889.40,1070.47 889.06,1070.63M 643.89,843.75
           C 643.89,843.59 742.90,1134.91 742.90,1134.91
             742.90,1134.91 643.89,843.92 643.89,843.75 Z
           M 743.40,1069.63
           C 743.40,1069.63 742.23,1276.37 742.23,1276.37
             742.23,1276.37 743.40,1069.63 743.40,1069.63 Z
           M 743.57,1069.63
           C 743.57,1069.63 950.48,1070.80 950.48,1070.80
             950.48,1070.80 891.58,1202.89 891.58,1203.37
             891.58,1203.85 488.36,1207.01 488.36,1207.01M 784.01,1069.65
           C 784.01,1069.65 743.01,1134.86 743.01,1134.86
             743.01,1134.86 784.01,1069.65 784.01,1069.65 Z
           M 637.10,844.53
           C 637.10,844.38 636.35,1043.48 636.35,1043.48
             636.35,1043.48 617.13,1043.63 617.13,1043.63
             617.13,1043.63 616.53,1079.64 616.53,1079.64
             616.53,1079.64 561.61,1079.64 561.61,1079.64
             561.61,1079.64 561.30,1113.53 561.45,1113.53
             561.61,1113.53 487.47,1113.68 487.47,1113.68
             487.47,1113.68 487.47,1123.51 487.47,1123.51
             487.47,1123.51 367.34,1122.61 367.34,1122.61
             367.34,1122.61 367.34,1203.55 367.34,1203.55" />
</svg>
