<?xml version="1.0" encoding="UTF-8" standalone="no"?>
<svg xmlns="http://www.w3.org/2000/svg"
     xmlns:svg="http://www.w3.org/2000/svg"
     version="1.1"
     width="1587.65mm" height="1922.4mm"
     viewBox="0 0 4501 5450">
  <path id="triangle"
        fill="none" stroke="black" stroke-width="1"
        d="M 1470.00,2845.00
           C 1470.00,2845.00 1546.00,2809.69 1546.00,2809.69
             1546.00,2809.69 1681.00,2747.69 1681.00,2747.69
             1681.00,2747.69 1742.00,2719.74 1742.00,2719.74
             1742.00,2719.74 1764.00,2709.69 1764.00,2709.69
             1764.00,2709.69 1774.00,2705.57 1774.00,2705.57
             1774.00,2705.57 1788.00,2709.81 1788.00,2709.81
             1788.00,2709.81 1815.00,2719.95 1815.00,2719.95
             1815.00,2719.95 1914.00,2756.95 1914.00,2756.95
             1914.00,2756.95 2219.00,2870.95 2219.00,2870.95
             2219.00,2870.95 2309.00,2904.58 2309.00,2904.58
             2309.00,2904.58 2333.00,2913.58 2333.00,2913.58
             2333.00,2913.58 2346.00,2920.00 2346.00,2920.00
             2340.58,2921.49 2329.96,2919.74 2324.00,2919.17
             2324.00,2919.17 2287.00,2916.09 2287.00,2916.09
             2287.00,2916.09 2218.00,2910.17 2218.00,2910.17
             2218.00,2910.17 2147.00,2904.17 2147.00,2904.17
             2147.00,2904.17 2116.00,2901.83 2116.00,2901.83
             2116.00,2901.83 1923.00,2885.17 1923.00,2885.17
             1923.00,2885.17 1892.00,2882.83 1892.00,2882.83
             1892.00,2882.83 1805.00,2875.17 1805.00,2875.17
             1805.00,2875.17 1774.00,2872.83 1774.00,2872.83
             1774.00,2872.83 1715.00,2867.83 1715.00,2867.83
             1715.00,2867.83 1686.00,2865.09 1686.00,2865.09
             1686.00,2865.09 1532.00,2852.09 1532.00,2852.09
             1532.00,2852.09 1487.00,2848.28 1487.00,2848.28
             1481.23,2847.60 1474.89,2848.66 1470.00,2845.00 Z
           M 2332.00,2916.00
           C 2332.00,2916.00 2282.00,2897.42 2282.00,2897.42
             2282.00,2897.42 2191.00,2863.42 2191.00,2863.42
             2191.00,2863.42 1938.00,2768.95 1938.00,2768.95
             1938.00,2768.95 1824.00,2726.32 1824.00,2726.32
             1824.00,2726.32 1791.00,2713.95 1791.00,2713.95
             1791.00,2713.95 1775.00,2708.54 1775.00,2708.54
             1775.00,2708.54 1752.00,2718.14 1752.00,2718.14
             1752.00,2718.14 1693.00,2745.22 1693.00,2745.22
             1693.00,2745.22 1546.00,2812.69 1546.00,2812.69
             1546.00,2812.69 1499.00,2834.22 1499.00,2834.22
             1499.00,2834.22 1477.00,2845.00 1477.00,2845.00
             1477.00,2845.00 1550.00,2850.83 1550.00,2850.83
             1550.00,2850.83 1581.00,2853.17 1581.00,2853.17
             1581.00,2853.17 1668.00,2860.83 1668.00,2860.83
             1668.00,2860.83 1699.00,2863.17 1699.00,2863.17
             1699.00,2863.17 1833.00,2874.83 1833.00,2874.83
             1833.00,2874.83 1876.00,2878.17 1876.00,2878.17
             1876.00,2878.17 1982.00,2887.17 1982.00,2887.17
             1982.00,2887.17 2099.00,2897.09 2099.00,2897.09
             2099.00,2897.09 2116.00,2898.83 2116.00,2898.83
             2116.00,2898.83 2175.00,2903.83 2175.00,2903.83
             2175.00,2903.83 2265.00,2911.17 2265.00,2911.17
             2265.00,2911.17 2312.00,2915.17 2312.00,2915.17
             2312.00,2915.17 2332.00,2916.00 2332.00,2916.00 Z" />
  <path id="circles"
        fill="none" stroke="black" stroke-width="1"
        d="M 0.00,0.00
           C 0.00,0.00 4501.00,0.00 4501.00,0.00
             4501.00,0.00 4501.00,5450.00 4501.00,5450.00
             4501.00,5450.00 0.00,5450.00 0.00,5450.00
             0.00,5450.00 0.00,0.00 0.00,0.00 Z
           M 4500.00,1.00
           C 4500.00,1.00 1.00,1.00 1.00,1.00
             1.00,1.00 1.00,5449.00 1.00,5449.00
             1.00,5449.00 4500.00,5449.00 4500.00,5449.00
             4500.00,5449.00 4500.00,1.00 4500.00,1.00 Z
           M 1778.11,184.75
           C 1788.76,182.67 1788.90,194.96 1781.96,196.53
             1775.51,197.98 1770.45,189.55 1778.11,184.75 Z
           M 1561.43,301.03
           C 1569.41,298.18 1570.40,306.81 1565.86,308.34
             1562.45,309.49 1557.19,305.94 1561.43,301.03 Z
           M 1155.00,615.46
           C 1156.68,615.34 1157.21,615.13 1159.00,615.46
             1175.37,617.52 1171.49,640.40 1156.00,638.89
             1145.83,637.90 1140.78,620.06 1155.00,615.46 Z
           M 1821.02,678.78
           C 1831.64,677.05 1835.34,686.99 1826.98,690.10
             1819.70,692.80 1810.80,684.37 1821.02,678.78 Z
           M 1360.00,680.00
           C 1360.00,680.00 1366.00,680.00 1366.00,680.00
             1366.00,680.00 1366.00,685.00 1366.00,685.00
             1366.00,685.00 1360.00,685.00 1360.00,685.00
             1360.00,685.00 1360.00,680.00 1360.00,680.00 Z
           M 931.00,835.55
           C 934.61,835.11 937.78,835.31 940.78,837.70
             948.74,844.05 944.21,859.24 932.00,857.63
             920.53,856.12 917.75,839.75 931.00,835.55 Z
           M 2470.60,915.08
           C 2475.16,913.87 2474.91,917.83 2473.40,918.92
             2471.86,920.04 2468.06,919.01 2470.60,915.08 Z
           M 1611.02,1008.74
           C 1619.86,1006.61 1627.18,1011.98 1626.18,1016.91
             1625.54,1020.05 1619.82,1023.21 1617.00,1024.15
             1605.43,1027.98 1600.17,1014.72 1611.02,1008.74 Z
           M 2506.58,1235.08
           C 2509.24,1234.38 2511.56,1235.65 2510.35,1238.70
             2509.02,1242.03 2503.13,1240.07 2506.58,1235.08 Z
           M 2573.14,1329.80
           C 2579.69,1329.11 2579.60,1334.72 2575.86,1335.67
             2571.96,1336.65 2567.82,1333.36 2573.14,1329.80 Z
           M 436.00,1333.55
           C 439.61,1333.11 442.78,1333.31 445.78,1335.70
             453.74,1342.05 449.21,1357.24 437.00,1355.63
             425.53,1354.12 422.75,1337.75 436.00,1333.55 Z
           M 2813.15,1353.08
           C 2819.69,1351.76 2820.84,1357.88 2817.68,1359.97
             2813.99,1362.42 2807.09,1358.43 2813.15,1353.08 Z
           M 2794.00,1358.00
           C 2794.00,1358.00 2799.00,1358.00 2799.00,1358.00
             2799.00,1358.00 2799.00,1363.00 2799.00,1363.00
             2799.00,1363.00 2794.00,1363.00 2794.00,1363.00
             2794.00,1363.00 2794.00,1358.00 2794.00,1358.00 Z
           M 2076.00,1371.53
           C 2099.80,1368.18 2101.75,1404.03 2078.00,1402.96
             2066.47,1402.44 2059.50,1390.23 2064.69,1380.00
             2067.25,1374.94 2070.80,1373.08 2076.00,1371.53 Z
           M 2770.00,1388.00
           C 2770.00,1388.00 2775.00,1388.00 2775.00,1388.00
             2775.00,1388.00 2775.00,1393.00 2775.00,1393.00
             2775.00,1393.00 2770.00,1393.00 2770.00,1393.00
             2770.00,1393.00 2770.00,1388.00 2770.00,1388.00 Z
           M 900.17,1407.97
           C 906.39,1406.13 909.23,1410.02 907.57,1415.95
             906.79,1418.71 903.38,1421.85 900.83,1423.03
             895.30,1425.57 892.43,1421.13 893.15,1416.02
             893.72,1411.96 896.97,1410.00 900.17,1407.97 Z
           M 2614.15,1455.03
           C 2616.41,1454.30 2618.40,1453.62 2620.40,1455.60
             2622.32,1457.50 2622.79,1462.70 2618.85,1463.67
             2614.39,1464.76 2608.20,1460.38 2614.15,1455.03 Z
           M 2131.00,1483.48
           C 2151.25,1481.51 2156.14,1507.43 2140.00,1513.99
             2137.59,1514.97 2134.58,1515.09 2132.00,1514.96
             2114.65,1514.05 2111.89,1488.09 2131.00,1483.48 Z
           M 402.26,1534.17
           C 404.64,1533.89 406.47,1534.89 405.35,1537.70
             403.99,1541.09 397.79,1538.89 402.26,1534.17 Z
           M 597.00,1617.00
           C 597.00,1617.00 602.00,1617.00 602.00,1617.00
             602.00,1617.00 602.00,1622.00 602.00,1622.00
             602.00,1622.00 597.00,1622.00 597.00,1622.00
             597.00,1622.00 597.00,1617.00 597.00,1617.00 Z
           M 749.00,1627.59
           C 764.23,1625.81 767.81,1645.51 755.00,1648.55
             744.25,1651.11 733.08,1633.75 749.00,1627.59 Z
           M 479.30,1672.17
           C 481.55,1671.93 484.29,1672.74 482.83,1675.70
             481.18,1679.05 474.63,1676.97 479.30,1672.17 Z
           M 908.00,1671.00
           C 908.00,1671.00 913.00,1671.00 913.00,1671.00
             913.00,1671.00 913.00,1676.00 913.00,1676.00
             913.00,1676.00 908.00,1676.00 908.00,1676.00
             908.00,1676.00 908.00,1671.00 908.00,1671.00 Z
           M 384.31,1674.08
           C 390.37,1672.74 390.33,1678.40 387.69,1679.92
             385.05,1681.44 380.12,1678.65 384.31,1674.08 Z
           M 1742.30,1690.17
           C 1747.53,1689.61 1747.09,1694.37 1744.70,1695.34
             1742.36,1696.29 1738.43,1694.14 1742.30,1690.17 Z
           M 2084.60,1789.04
           C 2088.46,1787.75 2091.69,1790.20 2090.34,1793.69
             2088.77,1797.76 2080.05,1795.44 2084.60,1789.04 Z
           M 767.43,1860.03
           C 774.87,1857.36 776.02,1864.83 771.85,1866.92
             768.54,1868.58 763.12,1865.02 767.43,1860.03 Z
           M 2555.31,1910.08
           C 2561.53,1908.70 2560.99,1914.46 2557.87,1915.83
             2555.28,1916.96 2551.47,1914.27 2555.31,1910.08 Z
           M 779.64,1928.16
           C 783.78,1927.65 783.58,1931.04 782.36,1931.84
             781.15,1932.63 777.67,1931.65 779.64,1928.16 Z
           M 694.31,1932.08
           C 699.89,1930.77 698.80,1935.80 696.70,1936.83
             694.78,1937.78 690.91,1936.07 694.31,1932.08 Z
           M 1303.66,1961.10
           C 1305.96,1960.04 1308.39,1959.62 1310.68,1961.10
             1313.45,1963.05 1312.57,1966.43 1309.85,1967.34
             1306.51,1968.47 1301.57,1965.20 1303.66,1961.10 Z
           M 1230.60,1986.04
           C 1236.65,1984.02 1237.68,1989.98 1233.87,1991.34
             1230.79,1992.44 1227.97,1989.88 1230.60,1986.04 Z
           M 1136.00,1999.21
           C 1136.00,1999.21 1146.00,1999.21 1146.00,1999.21
             1154.97,1999.04 1166.75,2001.34 1175.00,2004.87
             1184.73,2009.04 1192.07,2013.92 1199.58,2021.42
             1237.30,2059.15 1226.26,2123.43 1178.00,2146.74
             1166.84,2152.13 1154.31,2154.14 1142.00,2154.00
             1134.70,2153.91 1124.93,2151.98 1118.00,2149.64
             1070.91,2133.80 1053.30,2076.31 1078.46,2035.00
             1091.66,2013.33 1111.72,2003.09 1136.00,1999.21 Z
           M 633.00,2001.58
           C 639.12,2000.76 644.59,2003.36 645.62,2010.00
             647.22,2020.34 636.03,2021.39 633.68,2023.58
             631.61,2025.51 629.02,2032.86 621.00,2031.62
             615.46,2030.76 611.52,2025.57 612.38,2020.00
             613.63,2011.91 621.18,2011.74 623.59,2010.02
             627.59,2007.16 625.42,2004.54 633.00,2001.58 Z
           M 581.02,2015.57
           C 584.77,2014.92 589.53,2014.81 592.58,2017.56
             599.07,2023.39 595.03,2034.33 587.00,2036.24
             574.89,2039.12 568.18,2020.87 581.02,2015.57 Z
           M 1258.33,2016.04
           C 1265.10,2013.95 1264.27,2020.61 1261.69,2021.83
             1259.45,2022.89 1254.69,2020.43 1258.33,2016.04 Z
           M 643.00,2032.48
           C 644.66,2032.36 645.21,2032.10 647.00,2032.48
             660.47,2034.46 657.17,2054.66 644.00,2052.62
             634.40,2051.14 630.79,2037.34 643.00,2032.48 Z
           M 591.02,2055.02
           C 595.01,2053.68 599.38,2053.41 602.77,2056.43
             609.24,2062.18 605.41,2073.32 597.00,2074.62
             587.33,2076.11 579.46,2063.27 591.02,2055.02 Z
           M 625.00,2058.48
           C 626.66,2058.36 627.21,2058.10 629.00,2058.48
             642.47,2060.46 639.17,2080.66 626.00,2078.62
             616.40,2077.14 612.79,2063.34 625.00,2058.48 Z
           M 1437.00,2143.74
           C 1442.60,2142.38 1448.45,2142.66 1452.61,2147.21
             1458.00,2153.11 1456.74,2164.95 1448.96,2168.28
             1445.95,2169.56 1439.00,2170.50 1436.02,2168.98
             1427.94,2164.86 1424.95,2150.10 1437.00,2143.74 Z
           M 2983.00,2179.58
           C 2997.52,2177.71 2997.84,2195.32 2988.00,2197.68
             2977.22,2200.27 2970.18,2184.65 2983.00,2179.58 Z
           M 2205.02,2217.84
           C 2214.24,2217.25 2214.18,2227.47 2207.96,2229.34
             2204.23,2230.47 2200.08,2226.83 2200.46,2223.01
             2200.75,2220.04 2202.71,2219.04 2205.02,2217.84 Z
           M 1478.06,2316.02
           C 1481.30,2314.91 1484.86,2314.36 1487.85,2316.60
             1491.83,2319.57 1492.43,2328.27 1487.85,2330.98
             1486.43,2331.82 1484.61,2331.95 1483.00,2331.97
             1472.75,2332.09 1471.05,2321.49 1478.06,2316.02 Z
           M 954.31,2326.04
           C 960.99,2324.00 960.37,2330.40 957.69,2331.92
             955.01,2333.44 950.16,2330.68 954.31,2326.04 Z
           M 809.43,2359.04
           C 816.33,2356.90 816.88,2364.13 813.69,2365.92
             810.78,2367.55 805.02,2364.11 809.43,2359.04 Z
           M 960.31,2363.17
           C 966.08,2362.59 966.35,2368.09 962.87,2369.34
             959.68,2370.49 956.23,2367.23 960.31,2363.17 Z
           M 1627.00,2373.56
           C 1632.00,2372.68 1637.47,2372.53 1641.99,2375.23
             1651.20,2380.73 1652.90,2395.04 1645.66,2402.81
             1641.54,2407.24 1636.81,2408.22 1631.00,2407.96
             1611.88,2407.10 1608.55,2380.01 1627.00,2373.56 Z
           M 1916.00,2374.48
           C 1920.50,2374.04 1925.20,2374.81 1928.90,2377.65
             1940.34,2386.43 1934.30,2408.44 1917.00,2406.66
             1901.60,2405.08 1899.19,2388.51 1905.65,2380.10
             1908.43,2376.48 1911.77,2375.46 1916.00,2374.48 Z
           M 1868.00,2487.48
           C 1869.66,2487.36 1870.21,2487.10 1872.00,2487.48
             1885.47,2489.46 1882.17,2509.66 1869.00,2507.62
             1859.40,2506.14 1855.79,2492.34 1868.00,2487.48 Z
           M 3667.60,2559.04
           C 3673.54,2557.00 3673.61,2563.18 3670.70,2564.34
             3668.11,2565.38 3664.84,2563.08 3667.60,2559.04 Z
           M 1492.00,2563.48
           C 1496.50,2563.04 1501.20,2563.81 1504.90,2566.65
             1516.34,2575.43 1510.30,2597.44 1493.00,2595.66
             1477.60,2594.08 1475.19,2577.51 1481.65,2569.10
             1484.43,2565.48 1487.77,2564.46 1492.00,2563.48 Z
           M 2288.60,2565.15
           C 2292.01,2564.69 2291.36,2567.21 2290.40,2567.85
             2289.45,2568.49 2286.87,2568.12 2288.60,2565.15 Z
           M 2292.31,2610.08
           C 2294.95,2609.46 2297.69,2610.39 2296.34,2613.70
             2294.98,2617.07 2288.19,2614.92 2292.31,2610.08 Z
           M 1421.00,2670.46
           C 1424.70,2670.15 1427.82,2670.24 1430.49,2673.28
             1436.34,2679.90 1429.83,2691.19 1422.00,2689.53
             1413.74,2687.77 1411.93,2675.34 1416.43,2671.98
             1417.75,2671.00 1419.45,2670.80 1421.00,2670.46 Z
           M 2392.00,2707.53
           C 2399.32,2706.33 2407.74,2706.32 2413.99,2710.80
             2425.62,2719.14 2426.51,2739.19 2415.91,2748.67
             2410.12,2753.85 2405.31,2754.08 2398.00,2754.00
             2371.27,2753.68 2367.51,2715.16 2392.00,2707.53 Z
           M 4023.60,2732.04
           C 4029.54,2730.00 4029.61,2736.18 4026.70,2737.34
             4024.11,2738.38 4020.84,2736.08 4023.60,2732.04 Z
           M 1800.00,2882.23
           C 1802.87,2882.07 1805.10,2881.95 1808.00,2882.23
             1848.06,2882.92 1866.79,2932.14 1838.96,2959.96
             1835.32,2963.61 1830.73,2966.88 1826.00,2968.96
             1819.46,2971.82 1812.12,2973.15 1805.00,2972.99
             1770.59,2972.20 1750.03,2934.74 1766.51,2905.00
             1774.09,2891.33 1785.15,2885.18 1800.00,2882.23 Z
           M 2272.00,2901.00
           C 2273.00,2898.35 2273.31,2893.84 2276.21,2892.84
             2279.31,2891.78 2282.21,2894.69 2281.16,2897.79
             2280.18,2900.68 2275.64,2901.03 2273.00,2902.00
             2273.00,2902.00 2272.00,2901.00 2272.00,2901.00 Z
           M 1486.00,2907.53
           C 1494.70,2906.11 1503.87,2906.63 1510.91,2912.53
             1521.70,2921.57 1521.99,2942.09 1511.82,2951.67
             1505.78,2957.36 1499.85,2958.09 1492.00,2958.00
             1462.65,2957.65 1458.73,2915.66 1486.00,2907.53 Z
           M 2272.00,2938.00
           C 2273.31,2937.47 2274.56,2936.84 2275.99,2936.65
             2286.49,2935.23 2279.14,2950.79 2273.56,2941.77
             2273.56,2941.77 2272.00,2938.00 2272.00,2938.00 Z
           M 1491.40,2993.08
           C 1497.73,2991.56 1499.23,3003.43 1495.69,3006.40
             1492.95,3008.69 1488.24,3008.11 1487.36,3003.94
             1486.58,3000.27 1488.89,2995.55 1491.40,2993.08 Z
           M 3875.60,2997.04
           C 3881.54,2995.00 3881.61,3001.18 3878.70,3002.34
             3876.11,3003.38 3872.84,3001.08 3875.60,2997.04 Z
           M 1288.00,3014.57
           C 1300.06,3013.75 1307.65,3027.83 1298.89,3036.95
             1297.01,3038.90 1294.69,3040.75 1292.00,3041.39
             1284.02,3043.29 1275.18,3033.76 1276.38,3026.00
             1277.30,3020.07 1282.64,3016.19 1288.00,3014.57 Z
           M 1854.06,3061.02
           C 1867.24,3056.51 1867.02,3066.95 1867.00,3076.00
             1867.00,3078.04 1867.37,3082.66 1865.40,3083.87
             1862.73,3085.52 1858.74,3081.60 1857.00,3079.96
             1851.16,3074.45 1845.93,3067.37 1854.06,3061.02 Z
           M 1907.02,3063.02
           C 1920.52,3058.51 1925.28,3074.53 1914.98,3079.82
             1905.75,3084.57 1895.62,3071.24 1907.02,3063.02 Z
           M 2292.60,3092.08
           C 2298.21,3090.68 2298.35,3096.51 2295.70,3097.83
             2293.31,3099.02 2289.73,3096.23 2292.60,3092.08 Z
           M 2215.32,3143.03
           C 2223.22,3140.28 2222.72,3148.23 2219.69,3149.92
             2216.75,3151.56 2210.92,3148.01 2215.32,3143.03 Z
           M 2277.10,3143.84
           C 2285.13,3143.30 2285.00,3151.77 2279.94,3153.34
             2275.17,3154.83 2269.75,3148.14 2277.10,3143.84 Z
           M 3721.60,3150.04
           C 3727.54,3148.00 3727.61,3154.18 3724.70,3155.34
             3722.11,3156.38 3718.84,3154.08 3721.60,3150.04 Z
           M 2268.43,3169.02
           C 2277.03,3165.75 2278.53,3174.34 2274.57,3176.97
             2270.70,3179.55 2263.09,3175.00 2268.43,3169.02 Z
           M 3899.59,3170.04
           C 3905.92,3167.87 3905.71,3175.15 3902.70,3176.34
             3899.70,3177.54 3896.57,3174.32 3899.59,3170.04 Z
           M 2929.00,3202.62
           C 2937.25,3202.14 2945.34,3205.80 2948.31,3214.00
             2949.71,3217.84 2949.58,3222.03 2950.20,3226.00
             2951.21,3232.43 2956.78,3237.82 2952.67,3239.27
             2951.21,3239.79 2947.02,3238.10 2944.83,3237.82
             2939.43,3237.14 2925.95,3233.33 2922.11,3229.78
             2920.40,3228.20 2914.67,3219.16 2914.53,3216.96
             2914.09,3210.21 2923.35,3204.11 2929.00,3202.62 Z
           M 3329.00,3216.48
           C 3332.33,3216.16 3334.86,3216.23 3338.00,3217.65
             3353.27,3224.55 3347.16,3248.45 3330.00,3246.66
             3313.45,3244.94 3310.26,3221.00 3329.00,3216.48 Z
           M 2767.30,3271.08
           C 2773.02,3269.75 2772.20,3275.35 2769.70,3276.34
             2767.34,3277.29 2763.48,3275.23 2767.30,3271.08 Z
           M 2141.58,3320.08
           C 2144.24,3319.38 2146.56,3320.65 2145.35,3323.70
             2144.02,3327.03 2138.13,3325.07 2141.58,3320.08 Z
           M 2143.31,3353.17
           C 2148.37,3352.62 2147.62,3356.84 2145.69,3357.83
             2143.78,3358.81 2139.88,3356.96 2143.31,3353.17 Z
           M 2242.31,3365.08
           C 2247.80,3363.86 2248.26,3368.45 2246.38,3369.97
             2244.08,3371.85 2237.68,3370.06 2242.31,3365.08 Z
           M 3468.60,3386.04
           C 3474.54,3384.00 3474.61,3390.18 3471.70,3391.34
             3469.11,3392.38 3465.84,3390.08 3468.60,3386.04 Z
           M 3542.60,3413.04
           C 3548.54,3411.00 3548.61,3417.18 3545.70,3418.34
             3543.11,3419.38 3539.84,3417.08 3542.60,3413.04 Z
           M 3445.60,3473.04
           C 3451.54,3471.00 3451.61,3477.18 3448.70,3478.34
             3446.11,3479.38 3442.84,3477.08 3445.60,3473.04 Z
           M 3087.31,3538.08
           C 3089.95,3537.46 3092.69,3538.39 3091.34,3541.70
             3089.98,3545.07 3083.19,3542.92 3087.31,3538.08 Z
           M 3040.60,3612.04
           C 3046.54,3610.00 3046.61,3616.18 3043.70,3617.34
             3041.11,3618.38 3037.84,3616.08 3040.60,3612.04 Z
           M 2830.60,3670.16
           C 2836.97,3669.29 2839.67,3676.96 2835.69,3678.83
             2832.43,3680.37 2827.17,3674.78 2830.60,3670.16 Z
           M 3441.31,3767.17
           C 3447.08,3766.59 3447.35,3772.09 3443.87,3773.34
             3440.68,3774.49 3437.23,3771.23 3441.31,3767.17 Z
           M 3423.31,3785.08
           C 3429.66,3783.67 3429.51,3790.06 3425.87,3791.34
             3422.66,3792.48 3419.28,3789.32 3423.31,3785.08 Z
           M 3239.15,3800.08
           C 3245.78,3798.71 3245.55,3805.16 3242.69,3806.77
             3239.64,3808.48 3233.70,3804.96 3239.15,3800.08 Z
           M 3090.60,3990.03
           C 3094.13,3988.66 3097.80,3990.06 3096.34,3993.70
             3094.88,3997.38 3086.61,3995.90 3090.60,3990.03 Z
           M 3066.60,4004.04
           C 3072.54,4002.00 3072.61,4008.18 3069.70,4009.34
             3067.11,4010.38 3063.84,4008.08 3066.60,4004.04 Z
           M 2797.60,4211.04
           C 2803.54,4209.00 2803.61,4215.18 2800.70,4216.34
             2798.11,4217.38 2794.84,4215.08 2797.60,4211.04 Z
           M 2720.06,4483.06
           C 2728.54,4481.06 2729.73,4490.19 2724.85,4492.97
             2721.19,4495.06 2716.02,4492.46 2716.46,4488.00
             2716.72,4485.35 2718.19,4484.49 2720.06,4483.06 Z
           M 2200.00,4684.55
           C 2214.32,4682.80 2222.03,4698.17 2212.78,4707.87
             2208.61,4712.23 2204.53,4711.99 2199.00,4712.00
             2196.65,4712.00 2190.33,4712.39 2188.61,4710.98
             2186.60,4709.32 2187.73,4705.31 2187.92,4703.00
             2188.63,4693.88 2190.35,4687.58 2200.00,4684.55 Z" />
</svg>
